<svg width="145" height="168" viewBox="0 0 145 168" fill="none" xmlns="http://www.w3.org/2000/svg">
  <mask id="mask0_402_26" style="mask-type:alpha" maskUnits="userSpaceOnUse" x="0" y="0" width="145" height="168">
    <path d="M145 111V86.5L140.5 68L134 53.5L125.5 41.5L124.5 46.5L121.5 53.5L107 68L98.5 77L91.5 87L95 90.5L99.5 93.5L106.5 82.5L117.5 72L127 60.5L130.5 67.5L133 74.5L136 88.5V106L134 117L129 127.5L125.5 134.5L118 143.5L112 147.5L105 152.5L97 156.5L86.5 159H66L60 158L50 155L40 150L32.5 144.5L27 138.5L22.5 134.5L15 121L9 102L9.5 86.5L11 79L13 71.5L16 64.5L20.5 56.5L26 49.5L28 55.5L35 68L46.5 85.5L51 94.5L54 103.5V116L53.5 120L51.5 125L48.5 129.5L41 122.5L35.5 113L33 103.5L32 98.5V90.5L36 77L29.5 66.5L23 84.5V104.5L28.5 120L42.5 136.5L51.5 141.5L54 139L61 124.5L63 116.5V103.5L60 94.5L52.5 77.5L43 64.5L38 55.5L36 51L34.5 46.5V40.5L36 34.5L37 30V25.5L18 44.5L6 65.5L0 87.5V102L2 109L2.5 114.5L6.5 124L11 133L17.5 142L26.5 152L39 160L51.5 165L64 167.5H86.5L95.5 166L112.5 159L124.5 149.5L134.5 137.5L141.5 124L145 111Z" fill="#FF0101" />
    <path d="M46 60L41 52V50L49 41L52.5 35.5L58.5 27L63.5 17.5L68 6.5L70.5 0L83.5 8L93.5 18.5L98 29V41L92.5 57C89.5215 63.6816 89.0537 67.1629 87 73C85.982 76.2363 86.2466 78.4395 87 82.5C89.4537 88.5123 91.7725 91.3275 99 94.5H108.5C113.616 93.1466 116.27 91.4704 121 87V108.5C118.698 116.64 116.827 121.068 111.5 128.5C107.301 132.488 104.699 134.84 99 139.5H96C90.2667 131.741 86.6758 127.643 86 121V102.5L95 107V120L97.5 125.5L99 128L103.5 124.5L106.5 120L110 113.5L112 107.5V103.5H96L83.5 94.5L77 82.5V71L82 57L88 41V31.5L85.5 23.5L75 14L71.5 23.5L64.5 35.5L46 60Z" fill="#FF0101" />
  </mask>
  <g mask="url(#mask0_402_26)">
    <rect width="145" height="168" fill="url(#paint0_linear_402_26)" />
  </g>
  <defs>
    <linearGradient id="paint0_linear_402_26" x1="-2.16067e-06" y1="84" x2="145" y2="84" gradientUnits="userSpaceOnUse">
      <stop stop-color="#952000" />
      <stop stop-color="#952000" />
      <stop offset="0.0001" stop-color="#952000" />
      <stop offset="1" stop-color="#FF0000" />
    </linearGradient>
  </defs>
</svg>